Appula Apparao (1991) DvdRip Telugu Movie - teluguppls


General

Format                           : MPEG-4
Format profile                   : Base Media
Codec ID                         : isom
File size                        : 699 MiB
Duration                         : 2h 19mn
Overall bit rate                 : 700 Kbps


Video

Format                           : AVC
Format/Info                      : Advanced Video Codec
Format profile                   : High@L5.1
Format settings, CABAC           : Yes
Format settings, ReFrames        : 5 frames
Codec ID                         : avc1
Codec ID/Info                    : Advanced Video Coding
Duration                         : 2h 19mn
Bit rate mode                    : Variable
Bit rate                         : 648 Kbps
Maximum bit rate                 : 2 808 Kbps
Width                            : 608 pixels
Height                           : 384 pixels
Display aspect ratio             : 1.583
Frame rate mode                  : Constant
Frame rate                       : 23.976 fps
Color space                      : YUV
Chroma subsampling               : 4:2:0
Bit depth                        : 8 bits
Scan type                        : Progressive
Bits/(Pixel*Frame)               : 0.116
Stream size                      : 648 MiB (93%)


Audio

Format                           : AAC
Format/Info                      : Advanced Audio Codec
Format profile                   : HE-AACv2 / HE-AAC / LC
Codec ID                         : 40
Duration                         : 2h 19mn
Bit rate mode                    : Variable
Bit rate                         : 48.0 Kbps
Maximum bit rate                 : 56.8 Kbps
Channel(s)                       : 2 channels / 1 channel / 1 channel
Channel positions                : Front: L R / Front: C / Front: C
Sampling rate                    : 48.0 KHz / 48.0 KHz / 24.0 KHz
Compression mode                 : Lossy
Stream size                      : 48.7 MiB (7%)


PLEASE SEEEEEEEEEEEEEEEEEDDDDDDDDDDDDDDDDDDDDDD............................

POST A COMMENT PLZZZ......................